<?xml version="1.0" encoding="UTF-8"?>
<svg width="256" height="128" xmlns="http://www.w3.org/2000/svg">
  <!-- Outer octagon -->
  <path d="M 24,0 L 232,0 Q 236,0 239,3 L 253,17 Q 256,20 256,24 L 256,104 Q 256,108 253,111 L 239,125 Q 236,128 232,128 L 24,128 Q 20,128 17,125 L 3,111 Q 0,108 0,104 L 0,24 Q 0,20 3,17 L 17,3 Q 20,0 24,0 Z" fill="#666666"/>

  <!-- Middle octagon -->
  <path d="M 31,12 L 225,12 Q 229,12 232,15 L 241,24 Q 244,27 244,31 L 244,97 Q 244,101 241,104 L 232,113 Q 229,116 225,116 L 31,116 Q 27,116 24,113 L 15,104 Q 12,101 12,97 L 12,31 Q 12,27 15,24 L 24,15 Q 27,12 31,12 Z" fill="#b2b2b2"/>
</svg>
