<?xml version="1.0" encoding="UTF-8"?>
<svg width="256" height="128" xmlns="http://www.w3.org/2000/svg">
  <!-- Button_idle (three-layer chamfered: black outer, dark-grey middle ~5px, dark inner) at 0,0 -->
  <path d="M 44,0 L 212,0 Q 216,0 219,3 L 253,37 Q 256,40 256,44 L 256,84 Q 256,88 253,91 L 219,125 Q 216,128 212,128 L 44,128 Q 40,128 37,125 L 3,91 Q 0,88 0,84 L 0,44 Q 0,40 3,37 L 37,3 Q 40,0 44,0 Z" fill="#030303"/>
  <path d="M 46,12 L 210,12 Q 214,12 217,15 L 241,39 Q 244,42 244,46 L 244,82 Q 244,86 241,89 L 217,113 Q 214,116 210,116 L 46,116 Q 42,116 39,113 L 15,89 Q 12,86 12,82 L 12,46 Q 12,42 15,39 L 39,15 Q 42,12 46,12 Z" fill="#494949"/>
  <path d="M 51,17 L 205,17 Q 212,17 213,19 L 237,43 Q 239,44 239,51 L 239,77 Q 239,84 237,85 L 213,109 Q 211,111 205,111 L 51,111 Q 44,111 43,109 L 19,85 Q 17,84 17,77 L 17,51 Q 17,44 19,43 L 43,19 Q 44,17 51,17 Z" fill="#312e2e"/>
</svg>
