<?xml version="1.0" encoding="UTF-8"?>
<svg width="256" height="384" xmlns="http://www.w3.org/2000/svg">
  <!-- Button_idle (three-layer chamfered: black outer, dark-grey middle ~5px, dark inner) at 0,0 -->
  <path d="M 24,0 L 232,0 Q 236,0 239,3 L 253,17 Q 256,20 256,24 L 256,104 Q 256,108 253,111 L 239,125 Q 236,128 232,128 L 24,128 Q 20,128 17,125 L 3,111 Q 0,108 0,104 L 0,24 Q 0,20 3,17 L 17,3 Q 20,0 24,0 Z" fill="#030303"/>
  <path d="M 31,12 L 225,12 Q 229,12 232,15 L 241,24 Q 244,27 244,31 L 244,97 Q 244,101 241,104 L 232,113 Q 229,116 225,116 L 31,116 Q 27,116 24,113 L 15,104 Q 12,101 12,97 L 12,31 Q 12,27 15,24 L 24,15 Q 27,12 31,12 Z" fill="#494949"/>
  <path d="M 38,17 L 218,17 Q 225,17 226,19 L 237,30 Q 239,31 239,38 L 239,90 Q 239,97 237,98 L 226,109 Q 225,111 218,111 L 38,111 Q 31,111 30,109 L 19,98 Q 17,97 17,90 L 17,38 Q 17,31 19,30 L 30,19 Q 31,17 38,17 Z" fill="#312e2e"/>

  <!-- Button_light_idle (lighter three-layer chamfered) positioned at y=128 -->
  <g transform="translate(0,128)">
    <path d="M 24,0 L 232,0 Q 236,0 239,3 L 253,17 Q 256,20 256,24 L 256,104 Q 256,108 253,111 L 239,125 Q 236,128 232,128 L 24,128 Q 20,128 17,125 L 3,111 Q 0,108 0,104 L 0,24 Q 0,20 3,17 L 17,3 Q 20,0 24,0 Z" fill="#d2d2d2"/>
    <path d="M 31,12 L 225,12 Q 229,12 232,15 L 241,24 Q 244,27 244,31 L 244,97 Q 244,101 241,104 L 232,113 Q 229,116 225,116 L 31,116 Q 27,116 24,113 L 15,104 Q 12,101 12,97 L 12,31 Q 12,27 15,24 L 24,15 Q 27,12 31,12 Z" fill="#bfbfbf"/>
    <path d="M 38,17 L 218,17 Q 225,17 226,19 L 237,30 Q 239,31 239,38 L 239,90 Q 239,97 237,98 L 226,109 Q 225,111 218,111 L 38,111 Q 31,111 30,109 L 19,98 Q 17,97 17,90 L 17,38 Q 17,31 19,30 L 30,19 Q 31,17 38,17 Z" fill="#efefef"/>
  </g>
  <!-- Button_grey_idle (mid-grey three-layer chamfered) positioned at y=256 -->
  <g transform="translate(0,256)">
    <path d="M 24,0 L 232,0 Q 236,0 239,3 L 253,17 Q 256,20 256,24 L 256,104 Q 256,108 253,111 L 239,125 Q 236,128 232,128 L 24,128 Q 20,128 17,125 L 3,111 Q 0,108 0,104 L 0,24 Q 0,20 3,17 L 17,3 Q 20,0 24,0 Z" fill="#6f6f6f"/>
    <path d="M 31,12 L 225,12 Q 229,12 232,15 L 241,24 Q 244,27 244,31 L 244,97 Q 244,101 241,104 L 232,113 Q 229,116 225,116 L 31,116 Q 27,116 24,113 L 15,104 Q 12,101 12,97 L 12,31 Q 12,27 15,24 L 24,15 Q 27,12 31,12 Z" fill="#8c8c8c"/>
    <path d="M 38,17 L 218,17 Q 225,17 226,19 L 237,30 Q 239,31 239,38 L 239,90 Q 239,97 237,98 L 226,109 Q 225,111 218,111 L 38,111 Q 31,111 30,109 L 19,98 Q 17,97 17,90 L 17,38 Q 17,31 19,30 L 30,19 Q 31,17 38,17 Z" fill="#c2c2c2"/>
  </g>
</svg>
