<?xml version="1.0" encoding="UTF-8"?>
<svg width="512" height="1152" xmlns="http://www.w3.org/2000/svg">
  <!-- Button_idle_1 (efff9f5e - Improvements to button layout) at 0,0 -->
  <rect x="0" y="0" width="256" height="128" rx="20" ry="20" fill="white"/>
  <rect x="10" y="10" width="236" height="82" rx="12.5" ry="12.5" fill="red"/>
  <!-- Button_idle_2 (f31b0118 - Thicker lines, no bottom thickness) at 0,128 -->
  <rect x="0" y="128" width="256" height="128" rx="40" ry="40" fill="white"/>
  <rect x="20" y="148" width="216" height="88" rx="25" ry="25" fill="red"/>
  <!-- Button_idle_3 (c917271d - Thicker lines, thicker bottom) at 256,128 -->
  <rect x="256" y="128" width="256" height="128" rx="40" ry="40" fill="white"/>
  <rect x="276" y="148" width="216" height="68" rx="25" ry="25" fill="red"/>
  <!-- Button_idle_4 (2045ac69 - Thin outline thicker bottom) at 256,256 -->
  <rect x="256" y="256" width="256" height="128" rx="40" ry="40" fill="white"/>
  <rect x="261" y="261" width="246" height="108" rx="35" ry="35" fill="red"/>
  <!-- Button_idle_5 (ee89fab4 - Thin outline only at the bottom) at 256,384 -->
  <rect x="257" y="384" width="254" height="128" rx="40" ry="40" fill="white"/>
  <rect x="256" y="384" width="256" height="118" rx="35" ry="35" fill="red"/>
  <!-- Button_idle_6 (chamfered/bevelled corners) at 0,512 -->
  <path d="M 40,512 L 216,512 L 256,552 L 256,600 L 216,640 L 40,640 L 0,600 L 0,552 Z" fill="white"/>
  <path d="M 42,519 L 214,519 L 249,554 L 249,598 L 214,633 L 42,633 L 7,598 L 7,554 Z" fill="red"/>
  <!-- Button_idle_7 (double thickness white outline) at 0,640 -->
  <path d="M 40,640 L 216,640 L 256,680 L 256,728 L 216,768 L 40,768 L 0,728 L 0,680 Z" fill="white"/>
  <path d="M 42,652 L 214,652 L 244,682 L 244,726 L 214,756 L 42,756 L 12,726 L 12,682 Z" fill="red"/>
  <!-- Button_idle_8 (chamfered with 2px black underline on bottom) at 0,768 -->
  <path d="M 40,768 L 216,768 L 256,808 L 256,856 L 216,896 L 40,896 L 0,856 L 0,808 Z" fill="white"/>
  <path d="M 42,775 L 214,775 L 249,810 L 249,854 L 214,889 L 42,889 L 7,854 L 7,810 Z" fill="#4c0000"/>
  <path d="M 42,775 L 214,775 L 249,810 L 249,854 L 214,871 L 42,871 L 7,854 L 7,810 Z" fill="red"/>
  <!-- Button_idle_9 (chamfered with 4px rounded corners) at 0,896 -->
  <path d="M 44,896 L 212,896 Q 216,896 219,899 L 253,933 Q 256,936 256,940 L 256,980 Q 256,984 253,987 L 219,1021 Q 216,1024 212,1024 L 44,1024 Q 40,1024 37,1021 L 3,987 Q 0,984 0,980 L 0,940 Q 0,936 3,933 L 37,899 Q 40,896 44,896 Z" fill="white"/>
  <path d="M 46,908 L 210,908 Q 214,908 217,911 L 241,935 Q 244,938 244,942 L 244,978 Q 244,982 241,985 L 217,1009 Q 214,1012 210,1012 L 46,1012 Q 42,1012 39,1009 L 15,985 Q 12,982 12,978 L 12,942 Q 12,938 15,935 L 39,911 Q 42,908 46,908 Z" fill="red"/>
  <!-- Button_idle_10 (chamfered with 4px rounded corners, three-layer: white outer, black middle ~5px, red inner) at 0,1024 -->
  <path d="M 44,1024 L 212,1024 Q 216,1024 219,1027 L 253,1061 Q 256,1064 256,1068 L 256,1108 Q 256,1112 253,1115 L 219,1149 Q 216,1152 212,1152 L 44,1152 Q 40,1152 37,1149 L 3,1115 Q 0,1112 0,1108 L 0,1068 Q 0,1064 3,1061 L 37,1027 Q 40,1024 44,1024 Z" fill="white"/>
  <path d="M 46,1036 L 210,1036 Q 214,1036 217,1039 L 241,1063 Q 244,1066 244,1070 L 244,1106 Q 244,1110 241,1113 L 217,1137 Q 214,1140 210,1140 L 46,1140 Q 42,1140 39,1137 L 15,1113 Q 12,1110 12,1106 L 12,1070 Q 12,1066 15,1063 L 39,1039 Q 42,1036 46,1036 Z" fill="black"/>
  <path d="M 51,1041 L 205,1041 Q 212,1041 213,1043 L 237,1067 Q 239,1068 239,1075 L 239,1101 Q 239,1108 237,1109 L 213,1133 Q 211,1135 205,1135 L 51,1135 Q 44,1135 43,1133 L 19,1109 Q 17,1108 17,1101 L 17,1075 Q 17,1068 19,1067 L 43,1043 Q 44,1041 51,1041 Z" fill="red"/>
</svg>
